# xmcd
# 
# Track frame offsets:
#     150
#     15312
#     32240
#     60405
#     81400
#     91422
#     120032
#     139650
#     151172
#     182980
#     203787
#     213592
# 
# Disc length: 3199
# 
# Revision: 0
# Processed by: cddbd v1.5.2PL0 Copyright (c) Steve Scherf et al.
# Submitted via: BonkEnc v1.0.8
# 
DISCID=960c7d0c
DTITLE=Tommy Flanagan - The Complete "Overseas"
DYEAR=1957
DGENRE=Jazz
TTITLE0=Relaxin' At Camarillo
TTITLE1=Chelsea Bridge
TTITLE2=Eclypso
TTITLE3=Dalarna [take 3]
TTITLE4=Verdand [take 1]
TTITLE5=Willow Weep For Me [take 2]
TTITLE6=Beats Up
TTITLE7=Skal Brothers
TTITLE8=Little Rock
TTITLE9=Dalarna [take 2]
TTITLE10=Verdandi [take 2]
TTITLE11=Willow Weep For Me [take 1]
EXTD=YEAR: 1957 ID3G: 8
EXTT0=
EXTT1=
EXTT2=
EXTT3=
EXTT4=
EXTT5=
EXTT6=
EXTT7=
EXTT8=
EXTT9=
EXTT10=
EXTT11=
PLAYORDER=
